<?xml version="1.0"?>
<!DOCTYPE svg PUBLIC "-//W3C//DTD SVG 1.1//EN"
"http://www.w3.org/Graphics/SVG/1.1/DTD/svg11.dtd">
<svg version="1.1" xmlns="http://www.w3.org/2000/svg"
xmlns:xlink="http://www.w3.org/1999/xlink"
preserveAspectRatio="xMidYMid">

<defs>
<g id = "Polygon" >
<polygon points="173.86058147591558,113.02361332501978 164.9519052838329,137.5 148.20907072649044,157.45333323392336 125.65151074942516,170.47694655894313 100,175 74.34848925057484,170.47694655894313 51.790929273509576,157.4533332339234 35.048094716167114,137.50000000000003 26.139418524084405,113.02361332501981 26.13941852408439,86.97638667498025 35.048094716167085,62.50000000000002 51.79092927350954,42.546666766076655 74.3484892505748,29.523053441056888 99.99999999999999,25 125.65151074942511,29.52305344105686 148.20907072649044,42.54666676607664 164.95190528383287,62.499999999999964 173.86058147591558,86.97638667498022"
fill="black" stroke="black" stroke-width="1" >
<animateTransform attributeName="transform"
type="rotate"
from="360 100 100"
to="0 100 100"
dur="5s"
repeatCount="indefinite" />
</polygon>

</g>

<g id="Object">
<use xlink:href = "#Polygon"  transform = "translate(100,100)" />
<use xlink:href = "#Polygon" transform = "translate(400,150)" />
<rect x = "220" y = "150" width = "330" height = "25" fill="red" transform = "rotate(10)"/>

<polygon points="350,220 400,450 300,450" /> 
</g>
</defs>

<use xlink:href = "#Object"   transform= "translate(0,100) scale(0.8,0.8)" fill="purple"/>
<use xlink:href = "#Object"   transform = "translate(500,300)" fill="blue"/>
<use xlink:href = "#Object"   transform = "translate(1000,80) scale(0.4,0.4)" fill="green"/>
</svg>
